<mxfile host="app.diagrams.net" modified="2021-11-01T16:42:58.797Z" agent="5.0 (Windows)" etag="XDo5QkAlRB8MeE0vx6bf" version="15.6.3" type="github">
  <diagram id="8Muh-KpORN-EGSSfZRsh" name="Page-1">
    <mxGraphModel dx="3081" dy="824" grid="1" gridSize="10" guides="1" tooltips="1" connect="1" arrows="1" fold="1" page="1" pageScale="1" pageWidth="827" pageHeight="1169" math="0" shadow="0">
      <root>
        <mxCell id="0" />
        <mxCell id="1" parent="0" />
        <object label="" placeholders="1" class_name="&lt;&lt; className &gt;&gt;" id="wxWCpIfHDx4iJn5RmTLD-1">
          <mxCell style="rounded=0;whiteSpace=wrap;html=1;fillColor=#fff2cc;strokeColor=#d6b656;container=0;connectable=0;allowArrows=0;treeFolding=0;moveCells=0;treeMoving=0;comic=0;rotatable=0;expand=1;autosize=1;resizeWidth=1;resizeHeight=1;metaEdit=1;" vertex="1" parent="1">
            <mxGeometry x="-150" y="140" width="760" height="540" as="geometry">
              <mxRectangle x="40" y="400" width="50" height="40" as="alternateBounds" />
            </mxGeometry>
          </mxCell>
        </object>
        <object label="Factorial" placeholders="1" id="wxWCpIfHDx4iJn5RmTLD-2">
          <mxCell style="rounded=0;whiteSpace=wrap;html=1;fillColor=#ffffff;fontSize=18;connectable=0;allowArrows=0;rotatable=0;cloneable=0;deletable=0;" vertex="1" parent="wxWCpIfHDx4iJn5RmTLD-1">
            <mxGeometry x="10" y="20" width="740" height="40" as="geometry" />
          </mxCell>
        </object>
        <mxCell id="wxWCpIfHDx4iJn5RmTLD-3" value="" style="rounded=0;whiteSpace=wrap;html=1;fillColor=#ffffff;connectable=0;allowArrows=0;container=1;collapsible=0;portConstraintRotation=0;rotatable=0;cloneable=0;deletable=0;recursiveResize=0;" vertex="1" parent="wxWCpIfHDx4iJn5RmTLD-1">
          <mxGeometry x="10" y="70" width="740" height="460" as="geometry">
            <mxRectangle x="10" y="70" width="50" height="40" as="alternateBounds" />
          </mxGeometry>
        </mxCell>
        <object label="%symbol%" placeholders="1" symbol="&amp;prod;" class_name="ProductBlock" block_name="product" id="wxWCpIfHDx4iJn5RmTLD-4">
          <mxCell style="whiteSpace=wrap;html=1;aspect=fixed;comic=0;fillColor=#FFFFFF;fontSize=36;align=center;resizable=0;container=1;collapsible=0;points=[];allowArrows=0;spacingTop=-6;metaEdit=1;connectable=0;" vertex="1" parent="wxWCpIfHDx4iJn5RmTLD-3">
            <mxGeometry x="380" y="41" width="80" height="80" as="geometry" />
          </mxCell>
        </object>
        <object label="%name%" placeholders="1" name="OUT1" class_name="OutputPortBlock" id="wxWCpIfHDx4iJn5RmTLD-5">
          <mxCell style="triangle;fillColor=#ffffff;fontSize=14;points=[[1,0.5]];allowArrows=0;verticalAlign=middle;horizontal=1;spacingTop=0;align=left;spacingLeft=4;spacingRight=0;html=1;comic=0;treeFolding=0;treeMoving=0;movable=1;resizable=0;rotatable=1;deletable=1;editable=1;connectable=1;movableLabel=1;spacing=2;aspect=fixed;metaEdit=1;" vertex="1" parent="wxWCpIfHDx4iJn5RmTLD-4">
            <mxGeometry x="70" y="32.5" width="10" height="15" as="geometry">
              <mxPoint x="5" y="-7" as="offset" />
            </mxGeometry>
          </mxCell>
        </object>
        <object label="%name%" placeholders="1" name="IN1" class_name="InputPortBlock" id="wxWCpIfHDx4iJn5RmTLD-6">
          <mxCell style="triangle;fontSize=14;points=[[0,0.5]];allowArrows=0;verticalAlign=middle;horizontal=1;spacingTop=0;align=right;spacingLeft=0;spacingRight=8;html=1;comic=0;treeFolding=0;treeMoving=0;resizable=0;movableLabel=1;spacing=2;aspect=fixed;fillColor=#000000;metaEdit=1;" vertex="1" parent="wxWCpIfHDx4iJn5RmTLD-4">
            <mxGeometry y="17.5" width="10" height="15" as="geometry">
              <mxPoint x="-4" y="-8" as="offset" />
            </mxGeometry>
          </mxCell>
        </object>
        <object label="%name%" placeholders="1" name="IN2" class_name="InputPortBlock" id="wxWCpIfHDx4iJn5RmTLD-7">
          <mxCell style="triangle;fontSize=14;points=[[0,0.5]];allowArrows=0;verticalAlign=middle;horizontal=1;spacingTop=0;align=right;spacingLeft=0;spacingRight=8;html=1;comic=0;treeFolding=0;treeMoving=0;resizable=0;movableLabel=1;spacing=2;aspect=fixed;fillColor=#000000;metaEdit=1;" vertex="1" parent="wxWCpIfHDx4iJn5RmTLD-4">
            <mxGeometry y="47.5" width="10" height="15" as="geometry">
              <mxPoint x="-4" y="-8" as="offset" />
            </mxGeometry>
          </mxCell>
        </object>
        <mxCell id="wxWCpIfHDx4iJn5RmTLD-36" style="edgeStyle=orthogonalEdgeStyle;rounded=0;orthogonalLoop=1;jettySize=auto;html=1;exitX=1;exitY=0.5;exitDx=0;exitDy=0;entryX=0;entryY=0.5;entryDx=0;entryDy=0;" edge="1" parent="wxWCpIfHDx4iJn5RmTLD-4" source="wxWCpIfHDx4iJn5RmTLD-5" target="wxWCpIfHDx4iJn5RmTLD-7">
          <mxGeometry relative="1" as="geometry">
            <mxPoint x="-40" y="49" as="targetPoint" />
            <Array as="points">
              <mxPoint x="100" y="40" />
              <mxPoint x="100" y="98" />
              <mxPoint x="-40" y="98" />
              <mxPoint x="-40" y="55" />
            </Array>
          </mxGeometry>
        </mxCell>
        <object label="%symbol%" placeholders="1" symbol="D" class_name="DelayBlock" block_name="delay" id="wxWCpIfHDx4iJn5RmTLD-9">
          <mxCell style="whiteSpace=wrap;html=1;aspect=fixed;comic=0;fillColor=#FFFFFF;fontSize=36;align=center;resizable=0;container=1;collapsible=0;points=[];allowArrows=0;metaEdit=1;connectable=0;" vertex="1" parent="wxWCpIfHDx4iJn5RmTLD-3">
            <mxGeometry x="170" y="26" width="80" height="80" as="geometry" />
          </mxCell>
        </object>
        <object label="%name%" placeholders="1" name="OUT1" class_name="OutputPortBlock" id="wxWCpIfHDx4iJn5RmTLD-10">
          <mxCell style="triangle;fillColor=#ffffff;fontSize=14;points=[[1,0.5]];allowArrows=0;verticalAlign=middle;horizontal=1;spacingTop=0;align=left;spacingLeft=4;spacingRight=0;html=1;comic=0;treeFolding=0;treeMoving=0;movable=1;resizable=0;rotatable=1;deletable=1;editable=1;connectable=1;movableLabel=1;spacing=2;aspect=fixed;metaEdit=1;" vertex="1" parent="wxWCpIfHDx4iJn5RmTLD-9">
            <mxGeometry x="70" y="32.5" width="10" height="15" as="geometry">
              <mxPoint x="5" y="-7" as="offset" />
            </mxGeometry>
          </mxCell>
        </object>
        <object label="%name%" placeholders="1" name="IC" class_name="InputPortBlock" id="wxWCpIfHDx4iJn5RmTLD-11">
          <mxCell style="triangle;fontSize=14;points=[[0,0.5]];allowArrows=0;verticalAlign=middle;horizontal=1;spacingTop=0;align=right;spacingLeft=0;spacingRight=8;html=1;comic=0;treeFolding=0;treeMoving=0;resizable=0;movableLabel=1;spacing=2;aspect=fixed;fillColor=#000000;metaEdit=1;" vertex="1" parent="wxWCpIfHDx4iJn5RmTLD-9">
            <mxGeometry y="17.5" width="10" height="15" as="geometry">
              <mxPoint x="-4" y="-8" as="offset" />
            </mxGeometry>
          </mxCell>
        </object>
        <object label="%name%" placeholders="1" name="IN1" class_name="InputPortBlock" id="wxWCpIfHDx4iJn5RmTLD-12">
          <mxCell style="triangle;fontSize=14;points=[[0,0.5]];allowArrows=0;verticalAlign=middle;horizontal=1;spacingTop=0;align=right;spacingLeft=0;spacingRight=8;html=1;comic=0;treeFolding=0;treeMoving=0;resizable=0;movableLabel=1;spacing=2;aspect=fixed;fillColor=#000000;metaEdit=1;" vertex="1" parent="wxWCpIfHDx4iJn5RmTLD-9">
            <mxGeometry y="47.5" width="10" height="15" as="geometry">
              <mxPoint x="-4" y="-8" as="offset" />
            </mxGeometry>
          </mxCell>
        </object>
        <mxCell id="wxWCpIfHDx4iJn5RmTLD-14" style="edgeStyle=orthogonalEdgeStyle;rounded=0;orthogonalLoop=1;jettySize=auto;html=1;exitX=1;exitY=0.5;exitDx=0;exitDy=0;" edge="1" parent="wxWCpIfHDx4iJn5RmTLD-3" source="wxWCpIfHDx4iJn5RmTLD-10" target="wxWCpIfHDx4iJn5RmTLD-6">
          <mxGeometry relative="1" as="geometry" />
        </mxCell>
        <object label="%name%" placeholders="1" name="n!" class_name="OutputPortBlock" id="wxWCpIfHDx4iJn5RmTLD-15">
          <mxCell style="triangle;fillColor=#ffffff;fontSize=14;points=[[0,0.5],[1,0.5]];allowArrows=0;verticalAlign=middle;horizontal=1;spacingTop=0;align=left;spacingLeft=4;spacingRight=0;html=1;comic=0;treeFolding=0;treeMoving=0;movable=1;resizable=0;rotatable=1;deletable=1;editable=1;connectable=1;movableLabel=1;spacing=2;aspect=fixed;metaEdit=1;" vertex="1" parent="wxWCpIfHDx4iJn5RmTLD-3">
            <mxGeometry x="710" y="73.5" width="10" height="15" as="geometry">
              <mxPoint x="5" y="-7" as="offset" />
            </mxGeometry>
          </mxCell>
        </object>
        <mxCell id="wxWCpIfHDx4iJn5RmTLD-16" style="edgeStyle=orthogonalEdgeStyle;rounded=0;orthogonalLoop=1;jettySize=auto;html=1;exitX=1;exitY=0.5;exitDx=0;exitDy=0;" edge="1" parent="wxWCpIfHDx4iJn5RmTLD-3" source="wxWCpIfHDx4iJn5RmTLD-5" target="wxWCpIfHDx4iJn5RmTLD-15">
          <mxGeometry relative="1" as="geometry">
            <mxPoint x="690" y="240" as="targetPoint" />
          </mxGeometry>
        </mxCell>
        <object label="%value%" placeholders="1" value="1" block_name="one" class_name="ConstantBlock" id="wxWCpIfHDx4iJn5RmTLD-31">
          <mxCell style="ellipse;whiteSpace=wrap;html=1;comic=0;fillColor=#ffffff;fontSize=24;align=center;allowArrows=0;connectable=0;container=1;collapsible=0;recursiveResize=1;direction=west;resizable=0;metaEdit=1;rotation=0;" vertex="1" parent="wxWCpIfHDx4iJn5RmTLD-3">
            <mxGeometry x="16" y="11" width="80" height="80" as="geometry" />
          </mxCell>
        </object>
        <object label="%name%" placeholders="1" name="OUT1" class_name="OutputPortBlock" id="wxWCpIfHDx4iJn5RmTLD-32">
          <mxCell style="triangle;fillColor=#ffffff;fontSize=14;points=[[1,0.5]];allowArrows=0;verticalAlign=middle;horizontal=1;spacingTop=0;align=left;spacingLeft=4;spacingRight=0;html=1;comic=0;treeFolding=0;treeMoving=0;movable=1;resizable=0;rotatable=1;deletable=1;editable=1;connectable=1;movableLabel=1;spacing=2;aspect=fixed;metaEdit=1;rotation=0;" vertex="1" parent="wxWCpIfHDx4iJn5RmTLD-31">
            <mxGeometry x="72" y="33" width="10" height="15" as="geometry">
              <mxPoint x="6" y="-7" as="offset" />
            </mxGeometry>
          </mxCell>
        </object>
        <mxCell id="wxWCpIfHDx4iJn5RmTLD-33" style="edgeStyle=orthogonalEdgeStyle;rounded=0;orthogonalLoop=1;jettySize=auto;html=1;exitX=1;exitY=0.5;exitDx=0;exitDy=0;entryX=0;entryY=0.5;entryDx=0;entryDy=0;" edge="1" parent="wxWCpIfHDx4iJn5RmTLD-3" source="wxWCpIfHDx4iJn5RmTLD-32" target="wxWCpIfHDx4iJn5RmTLD-11">
          <mxGeometry relative="1" as="geometry" />
        </mxCell>
        <mxCell id="wxWCpIfHDx4iJn5RmTLD-34" style="edgeStyle=orthogonalEdgeStyle;rounded=0;orthogonalLoop=1;jettySize=auto;html=1;exitX=1;exitY=0.5;exitDx=0;exitDy=0;entryX=0;entryY=0.5;entryDx=0;entryDy=0;" edge="1" parent="wxWCpIfHDx4iJn5RmTLD-3" source="wxWCpIfHDx4iJn5RmTLD-10" target="wxWCpIfHDx4iJn5RmTLD-39">
          <mxGeometry relative="1" as="geometry">
            <mxPoint x="270" y="200.5" as="targetPoint" />
          </mxGeometry>
        </mxCell>
        <object label="%symbol%" placeholders="1" symbol="+1" class_name="AddOneBlock" block_name="plusone" id="wxWCpIfHDx4iJn5RmTLD-37">
          <mxCell style="whiteSpace=wrap;html=1;aspect=fixed;comic=0;fontSize=24;align=center;resizable=0;container=1;collapsible=0;points=[];allowArrows=0;metaEdit=1;connectable=0;rotation=90;" vertex="1" parent="wxWCpIfHDx4iJn5RmTLD-3">
            <mxGeometry x="230" y="150" width="80" height="80" as="geometry" />
          </mxCell>
        </object>
        <object label="%name%" placeholders="1" name="OUT1" class_name="OutputPortBlock" id="wxWCpIfHDx4iJn5RmTLD-38">
          <mxCell style="triangle;fillColor=#ffffff;fontSize=14;points=[[1,0.5]];allowArrows=0;verticalAlign=middle;horizontal=1;spacingTop=0;align=left;spacingLeft=4;spacingRight=0;html=1;comic=0;treeFolding=0;treeMoving=0;movable=1;resizable=0;rotatable=1;deletable=1;editable=1;connectable=1;movableLabel=1;spacing=2;aspect=fixed;metaEdit=1;rotation=90;" vertex="1" parent="wxWCpIfHDx4iJn5RmTLD-37">
            <mxGeometry x="35" y="68" width="10" height="15" as="geometry">
              <mxPoint x="5" y="-7" as="offset" />
            </mxGeometry>
          </mxCell>
        </object>
        <object label="%name%" placeholders="1" name="IN1" class_name="InputPortBlock" id="wxWCpIfHDx4iJn5RmTLD-39">
          <mxCell style="triangle;fontSize=14;points=[[0,0.5]];allowArrows=0;verticalAlign=middle;horizontal=1;spacingTop=0;align=right;spacingLeft=0;spacingRight=8;html=1;comic=0;treeFolding=0;treeMoving=0;resizable=0;movableLabel=1;spacing=2;aspect=fixed;fillColor=#000000;metaEdit=1;rotation=90;" vertex="1" parent="wxWCpIfHDx4iJn5RmTLD-37">
            <mxGeometry x="35" y="-2" width="10" height="15" as="geometry">
              <mxPoint x="-4" y="-8" as="offset" />
            </mxGeometry>
          </mxCell>
        </object>
        <mxCell id="wxWCpIfHDx4iJn5RmTLD-40" style="edgeStyle=orthogonalEdgeStyle;rounded=0;orthogonalLoop=1;jettySize=auto;html=1;exitX=1;exitY=0.5;exitDx=0;exitDy=0;entryX=0;entryY=0.5;entryDx=0;entryDy=0;" edge="1" parent="wxWCpIfHDx4iJn5RmTLD-3" source="wxWCpIfHDx4iJn5RmTLD-38" target="wxWCpIfHDx4iJn5RmTLD-12">
          <mxGeometry relative="1" as="geometry">
            <mxPoint x="110" y="80" as="targetPoint" />
          </mxGeometry>
        </mxCell>
      </root>
    </mxGraphModel>
  </diagram>
</mxfile>
